<mxfile host="app.diagrams.net" modified="2020-12-21T18:04:56.947Z" agent="5.0 (Windows NT 10.0; Win64; x64) AppleWebKit/537.36 (KHTML, like Gecko) Chrome/87.0.4280.88 Safari/537.36" etag="ak9t-AzWYcgpCFFzD2GY" version="14.1.1" type="github">
  <diagram name="Page-1" id="0783ab3e-0a74-02c8-0abd-f7b4e66b4bec">
    <mxGraphModel dx="1422" dy="794" grid="1" gridSize="10" guides="1" tooltips="1" connect="1" arrows="1" fold="1" page="1" pageScale="1" pageWidth="850" pageHeight="1100" background="#ffffff" math="0" shadow="0">
      <root>
        <mxCell id="0" />
        <mxCell id="1" parent="0" />
        <mxCell id="1c1d494c118603dd-1" value="UC3 - Přidání týmu" style="swimlane;html=1;childLayout=stackLayout;startSize=20;rounded=0;shadow=0;comic=0;labelBackgroundColor=none;strokeWidth=1;fontFamily=Verdana;fontSize=12;align=center;" parent="1" vertex="1">
          <mxGeometry x="40" y="20" width="750" height="990" as="geometry" />
        </mxCell>
        <mxCell id="bf48zWtr6IkKo6rd0Vpl-6" value="" style="edgeStyle=orthogonalEdgeStyle;rounded=0;orthogonalLoop=1;jettySize=auto;html=1;" parent="1c1d494c118603dd-1" source="bf48zWtr6IkKo6rd0Vpl-2" target="bf48zWtr6IkKo6rd0Vpl-5" edge="1">
          <mxGeometry relative="1" as="geometry">
            <Array as="points">
              <mxPoint x="640" y="210" />
              <mxPoint x="207" y="210" />
            </Array>
          </mxGeometry>
        </mxCell>
        <mxCell id="bf48zWtr6IkKo6rd0Vpl-3" value="" style="edgeStyle=orthogonalEdgeStyle;rounded=0;orthogonalLoop=1;jettySize=auto;html=1;" parent="1c1d494c118603dd-1" source="bf48zWtr6IkKo6rd0Vpl-1" target="bf48zWtr6IkKo6rd0Vpl-2" edge="1">
          <mxGeometry relative="1" as="geometry" />
        </mxCell>
        <mxCell id="UaZL2YHlJumYdDZByKz9-1" style="edgeStyle=orthogonalEdgeStyle;rounded=0;orthogonalLoop=1;jettySize=auto;html=1;exitX=1;exitY=0.5;exitDx=0;exitDy=0;entryX=0;entryY=0.5;entryDx=0;entryDy=0;" edge="1" parent="1c1d494c118603dd-1" source="bf48zWtr6IkKo6rd0Vpl-5" target="bf48zWtr6IkKo6rd0Vpl-11">
          <mxGeometry relative="1" as="geometry" />
        </mxCell>
        <mxCell id="1c1d494c118603dd-3" value="Lane 2" style="swimlane;html=1;startSize=20;" parent="1c1d494c118603dd-1" vertex="1">
          <mxGeometry y="20" width="380" height="970" as="geometry" />
        </mxCell>
        <mxCell id="60571a20871a0731-4" value="" style="ellipse;whiteSpace=wrap;html=1;rounded=0;shadow=0;comic=0;labelBackgroundColor=none;strokeWidth=1;fillColor=#000000;fontFamily=Verdana;fontSize=12;align=center;" parent="1c1d494c118603dd-3" vertex="1">
          <mxGeometry x="186.66" y="50" width="40" height="40" as="geometry" />
        </mxCell>
        <mxCell id="bf48zWtr6IkKo6rd0Vpl-5" value="Vyplnit informace" style="rounded=1;whiteSpace=wrap;html=1;shadow=0;comic=0;labelBackgroundColor=none;strokeWidth=1;fontFamily=Verdana;fontSize=12;align=center;arcSize=50;" parent="1c1d494c118603dd-3" vertex="1">
          <mxGeometry x="140" y="220" width="133.33" height="40" as="geometry" />
        </mxCell>
        <mxCell id="bf48zWtr6IkKo6rd0Vpl-1" value="Přidat nový tým" style="rounded=1;whiteSpace=wrap;html=1;shadow=0;comic=0;labelBackgroundColor=none;strokeWidth=1;fontFamily=Verdana;fontSize=12;align=center;arcSize=50;" parent="1c1d494c118603dd-3" vertex="1">
          <mxGeometry x="140" y="110" width="133.33" height="40" as="geometry" />
        </mxCell>
        <mxCell id="bf48zWtr6IkKo6rd0Vpl-4" style="edgeStyle=orthogonalEdgeStyle;rounded=0;orthogonalLoop=1;jettySize=auto;html=1;exitX=0.5;exitY=1;exitDx=0;exitDy=0;entryX=0.5;entryY=0;entryDx=0;entryDy=0;" parent="1c1d494c118603dd-3" source="60571a20871a0731-4" target="bf48zWtr6IkKo6rd0Vpl-1" edge="1">
          <mxGeometry relative="1" as="geometry" />
        </mxCell>
        <mxCell id="bf48zWtr6IkKo6rd0Vpl-20" value="Seznam hráčů v jiném týmu" style="rounded=1;whiteSpace=wrap;html=1;shadow=0;comic=0;labelBackgroundColor=none;strokeWidth=1;fontFamily=Verdana;fontSize=12;align=center;arcSize=50;" parent="1c1d494c118603dd-3" vertex="1">
          <mxGeometry x="200.00000000000003" y="565" width="133.33" height="40" as="geometry" />
        </mxCell>
        <mxCell id="UaZL2YHlJumYdDZByKz9-17" style="edgeStyle=orthogonalEdgeStyle;rounded=0;orthogonalLoop=1;jettySize=auto;html=1;exitX=0;exitY=0.5;exitDx=0;exitDy=0;entryX=1;entryY=0.5;entryDx=0;entryDy=0;" edge="1" parent="1c1d494c118603dd-3" source="bf48zWtr6IkKo6rd0Vpl-22" target="bf48zWtr6IkKo6rd0Vpl-27">
          <mxGeometry relative="1" as="geometry" />
        </mxCell>
        <mxCell id="UaZL2YHlJumYdDZByKz9-19" style="edgeStyle=orthogonalEdgeStyle;rounded=0;orthogonalLoop=1;jettySize=auto;html=1;exitX=0.5;exitY=1;exitDx=0;exitDy=0;entryX=0;entryY=0.5;entryDx=0;entryDy=0;" edge="1" parent="1c1d494c118603dd-3" source="bf48zWtr6IkKo6rd0Vpl-22" target="bf48zWtr6IkKo6rd0Vpl-5">
          <mxGeometry relative="1" as="geometry">
            <mxPoint x="30" y="500" as="targetPoint" />
            <Array as="points">
              <mxPoint x="267" y="820" />
              <mxPoint x="40" y="820" />
              <mxPoint x="40" y="240" />
            </Array>
          </mxGeometry>
        </mxCell>
        <mxCell id="bf48zWtr6IkKo6rd0Vpl-22" value="" style="rhombus;whiteSpace=wrap;html=1;" parent="1c1d494c118603dd-3" vertex="1">
          <mxGeometry x="244.17" y="650" width="45" height="45" as="geometry" />
        </mxCell>
        <mxCell id="bf48zWtr6IkKo6rd0Vpl-23" style="edgeStyle=orthogonalEdgeStyle;rounded=0;orthogonalLoop=1;jettySize=auto;html=1;exitX=0.5;exitY=1;exitDx=0;exitDy=0;entryX=0.5;entryY=0;entryDx=0;entryDy=0;" parent="1c1d494c118603dd-3" source="bf48zWtr6IkKo6rd0Vpl-20" target="bf48zWtr6IkKo6rd0Vpl-22" edge="1">
          <mxGeometry relative="1" as="geometry" />
        </mxCell>
        <mxCell id="bf48zWtr6IkKo6rd0Vpl-25" value="Pokračovat" style="text;html=1;strokeColor=none;fillColor=none;align=center;verticalAlign=middle;whiteSpace=wrap;rounded=0;" parent="1c1d494c118603dd-3" vertex="1">
          <mxGeometry x="310" y="650" width="40" height="20" as="geometry" />
        </mxCell>
        <mxCell id="bf48zWtr6IkKo6rd0Vpl-26" value="Přemístit" style="text;html=1;strokeColor=none;fillColor=none;align=center;verticalAlign=middle;whiteSpace=wrap;rounded=0;" parent="1c1d494c118603dd-3" vertex="1">
          <mxGeometry x="200" y="650" width="40" height="20" as="geometry" />
        </mxCell>
        <mxCell id="UaZL2YHlJumYdDZByKz9-18" style="edgeStyle=orthogonalEdgeStyle;rounded=0;orthogonalLoop=1;jettySize=auto;html=1;exitX=0.5;exitY=0;exitDx=0;exitDy=0;entryX=0;entryY=0.5;entryDx=0;entryDy=0;" edge="1" parent="1c1d494c118603dd-3" source="bf48zWtr6IkKo6rd0Vpl-27" target="bf48zWtr6IkKo6rd0Vpl-20">
          <mxGeometry relative="1" as="geometry" />
        </mxCell>
        <mxCell id="bf48zWtr6IkKo6rd0Vpl-27" value="Odhlásit z bývalého týmu" style="rounded=1;whiteSpace=wrap;html=1;shadow=0;comic=0;labelBackgroundColor=none;strokeWidth=1;fontFamily=Verdana;fontSize=12;align=center;arcSize=50;" parent="1c1d494c118603dd-3" vertex="1">
          <mxGeometry x="53.33000000000003" y="652.5" width="133.33" height="40" as="geometry" />
        </mxCell>
        <mxCell id="UaZL2YHlJumYdDZByKz9-20" value="Zrušit" style="text;html=1;strokeColor=none;fillColor=none;align=center;verticalAlign=middle;whiteSpace=wrap;rounded=0;" vertex="1" parent="1c1d494c118603dd-3">
          <mxGeometry x="130" y="830" width="40" height="20" as="geometry" />
        </mxCell>
        <mxCell id="UaZL2YHlJumYdDZByKz9-4" style="edgeStyle=orthogonalEdgeStyle;rounded=0;orthogonalLoop=1;jettySize=auto;html=1;exitX=1;exitY=0.5;exitDx=0;exitDy=0;entryX=0.5;entryY=0;entryDx=0;entryDy=0;" edge="1" parent="1c1d494c118603dd-1" source="bf48zWtr6IkKo6rd0Vpl-22" target="bf48zWtr6IkKo6rd0Vpl-17">
          <mxGeometry relative="1" as="geometry" />
        </mxCell>
        <mxCell id="1c1d494c118603dd-4" value="Lane 3" style="swimlane;html=1;startSize=20;" parent="1c1d494c118603dd-1" vertex="1">
          <mxGeometry x="380" y="20" width="370" height="970" as="geometry" />
        </mxCell>
        <mxCell id="60571a20871a0731-5" value="" style="shape=mxgraph.bpmn.shape;html=1;verticalLabelPosition=bottom;labelBackgroundColor=#ffffff;verticalAlign=top;perimeter=ellipsePerimeter;outline=end;symbol=terminate;rounded=0;shadow=0;comic=0;strokeWidth=1;fontFamily=Verdana;fontSize=12;align=center;" parent="1c1d494c118603dd-4" vertex="1">
          <mxGeometry x="240" y="880" width="40" height="40" as="geometry" />
        </mxCell>
        <mxCell id="bf48zWtr6IkKo6rd0Vpl-2" value="Formulář" style="rounded=1;whiteSpace=wrap;html=1;shadow=0;comic=0;labelBackgroundColor=none;strokeWidth=1;fontFamily=Verdana;fontSize=12;align=center;arcSize=50;" parent="1c1d494c118603dd-4" vertex="1">
          <mxGeometry x="193.35" y="110" width="133.33" height="40" as="geometry" />
        </mxCell>
        <mxCell id="bf48zWtr6IkKo6rd0Vpl-14" style="edgeStyle=orthogonalEdgeStyle;rounded=0;orthogonalLoop=1;jettySize=auto;html=1;exitX=0.5;exitY=1;exitDx=0;exitDy=0;entryX=0.5;entryY=0;entryDx=0;entryDy=0;" parent="1c1d494c118603dd-4" source="bf48zWtr6IkKo6rd0Vpl-11" target="bf48zWtr6IkKo6rd0Vpl-13" edge="1">
          <mxGeometry relative="1" as="geometry" />
        </mxCell>
        <mxCell id="bf48zWtr6IkKo6rd0Vpl-11" value="Ověření trenéra" style="rounded=1;whiteSpace=wrap;html=1;shadow=0;comic=0;labelBackgroundColor=none;strokeWidth=1;fontFamily=Verdana;fontSize=12;align=center;arcSize=50;" parent="1c1d494c118603dd-4" vertex="1">
          <mxGeometry x="193.34" y="220" width="133.33" height="40" as="geometry" />
        </mxCell>
        <mxCell id="UaZL2YHlJumYdDZByKz9-14" style="edgeStyle=orthogonalEdgeStyle;rounded=0;orthogonalLoop=1;jettySize=auto;html=1;exitX=0.5;exitY=1;exitDx=0;exitDy=0;entryX=0.5;entryY=0;entryDx=0;entryDy=0;" edge="1" parent="1c1d494c118603dd-4" source="bf48zWtr6IkKo6rd0Vpl-13" target="bf48zWtr6IkKo6rd0Vpl-7">
          <mxGeometry relative="1" as="geometry" />
        </mxCell>
        <mxCell id="UaZL2YHlJumYdDZByKz9-15" style="edgeStyle=orthogonalEdgeStyle;rounded=0;orthogonalLoop=1;jettySize=auto;html=1;exitX=0;exitY=0.5;exitDx=0;exitDy=0;entryX=0.5;entryY=0;entryDx=0;entryDy=0;" edge="1" parent="1c1d494c118603dd-4" source="bf48zWtr6IkKo6rd0Vpl-13" target="bf48zWtr6IkKo6rd0Vpl-30">
          <mxGeometry relative="1" as="geometry" />
        </mxCell>
        <mxCell id="bf48zWtr6IkKo6rd0Vpl-13" value="" style="rhombus;whiteSpace=wrap;html=1;" parent="1c1d494c118603dd-4" vertex="1">
          <mxGeometry x="237.51" y="305" width="45" height="45" as="geometry" />
        </mxCell>
        <mxCell id="bf48zWtr6IkKo6rd0Vpl-18" style="edgeStyle=orthogonalEdgeStyle;rounded=0;orthogonalLoop=1;jettySize=auto;html=1;exitX=0.5;exitY=1;exitDx=0;exitDy=0;entryX=0.5;entryY=0;entryDx=0;entryDy=0;" parent="1c1d494c118603dd-4" source="bf48zWtr6IkKo6rd0Vpl-17" target="60571a20871a0731-5" edge="1">
          <mxGeometry relative="1" as="geometry" />
        </mxCell>
        <mxCell id="bf48zWtr6IkKo6rd0Vpl-17" value="Uložení informace" style="rounded=1;whiteSpace=wrap;html=1;shadow=0;comic=0;labelBackgroundColor=none;strokeWidth=1;fontFamily=Verdana;fontSize=12;align=center;arcSize=50;" parent="1c1d494c118603dd-4" vertex="1">
          <mxGeometry x="193.35000000000002" y="770" width="133.33" height="40" as="geometry" />
        </mxCell>
        <mxCell id="bf48zWtr6IkKo6rd0Vpl-16" value="Není v jiném týmu" style="text;html=1;strokeColor=none;fillColor=none;align=center;verticalAlign=middle;whiteSpace=wrap;rounded=0;" parent="1c1d494c118603dd-4" vertex="1">
          <mxGeometry x="268.33000000000004" y="360" width="65" height="20" as="geometry" />
        </mxCell>
        <mxCell id="bf48zWtr6IkKo6rd0Vpl-9" value="" style="rhombus;whiteSpace=wrap;html=1;" parent="1c1d494c118603dd-4" vertex="1">
          <mxGeometry x="237.51" y="520" width="45" height="45" as="geometry" />
        </mxCell>
        <mxCell id="1iP0oBVXUrqY_fu9MYYH-1" value="Jsou v jiném týmu" style="text;html=1;strokeColor=none;fillColor=none;align=center;verticalAlign=middle;whiteSpace=wrap;rounded=0;" parent="1c1d494c118603dd-4" vertex="1">
          <mxGeometry x="104.16" y="510" width="70" height="20" as="geometry" />
        </mxCell>
        <mxCell id="bf48zWtr6IkKo6rd0Vpl-15" value="Nejsou v jiném týmu" style="text;html=1;strokeColor=none;fillColor=none;align=center;verticalAlign=middle;whiteSpace=wrap;rounded=0;" parent="1c1d494c118603dd-4" vertex="1">
          <mxGeometry x="280" y="580" width="62" height="20" as="geometry" />
        </mxCell>
        <mxCell id="bf48zWtr6IkKo6rd0Vpl-7" value="Ověření hráčů" style="rounded=1;whiteSpace=wrap;html=1;shadow=0;comic=0;labelBackgroundColor=none;strokeWidth=1;fontFamily=Verdana;fontSize=12;align=center;arcSize=50;" parent="1c1d494c118603dd-4" vertex="1">
          <mxGeometry x="193.34" y="400" width="133.33" height="40" as="geometry" />
        </mxCell>
        <mxCell id="UaZL2YHlJumYdDZByKz9-5" style="edgeStyle=orthogonalEdgeStyle;rounded=0;orthogonalLoop=1;jettySize=auto;html=1;exitX=0.5;exitY=1;exitDx=0;exitDy=0;entryX=0.5;entryY=0;entryDx=0;entryDy=0;" edge="1" parent="1c1d494c118603dd-4" source="bf48zWtr6IkKo6rd0Vpl-7" target="bf48zWtr6IkKo6rd0Vpl-9">
          <mxGeometry relative="1" as="geometry">
            <mxPoint x="107" y="520" as="targetPoint" />
          </mxGeometry>
        </mxCell>
        <mxCell id="UaZL2YHlJumYdDZByKz9-6" style="edgeStyle=orthogonalEdgeStyle;rounded=0;orthogonalLoop=1;jettySize=auto;html=1;exitX=0.5;exitY=1;exitDx=0;exitDy=0;entryX=0.5;entryY=0;entryDx=0;entryDy=0;" edge="1" parent="1c1d494c118603dd-4" source="bf48zWtr6IkKo6rd0Vpl-9" target="bf48zWtr6IkKo6rd0Vpl-17">
          <mxGeometry relative="1" as="geometry">
            <mxPoint x="420" y="760" as="targetPoint" />
          </mxGeometry>
        </mxCell>
        <mxCell id="bf48zWtr6IkKo6rd0Vpl-30" value="Chybová hláška" style="rounded=1;whiteSpace=wrap;html=1;shadow=0;comic=0;labelBackgroundColor=none;strokeWidth=1;fontFamily=Verdana;fontSize=12;align=center;arcSize=50;" parent="1c1d494c118603dd-4" vertex="1">
          <mxGeometry x="20" y="400" width="133.33" height="40" as="geometry" />
        </mxCell>
        <mxCell id="bf48zWtr6IkKo6rd0Vpl-32" value="Trenér je v jiném týmu" style="text;html=1;strokeColor=none;fillColor=none;align=center;verticalAlign=middle;whiteSpace=wrap;rounded=0;" parent="1c1d494c118603dd-4" vertex="1">
          <mxGeometry x="101.66000000000003" y="300" width="75" height="20" as="geometry" />
        </mxCell>
        <mxCell id="UaZL2YHlJumYdDZByKz9-11" style="edgeStyle=orthogonalEdgeStyle;rounded=0;orthogonalLoop=1;jettySize=auto;html=1;exitX=0;exitY=0.5;exitDx=0;exitDy=0;entryX=0.5;entryY=0;entryDx=0;entryDy=0;" edge="1" parent="1c1d494c118603dd-1" source="bf48zWtr6IkKo6rd0Vpl-9" target="bf48zWtr6IkKo6rd0Vpl-20">
          <mxGeometry relative="1" as="geometry" />
        </mxCell>
        <mxCell id="UaZL2YHlJumYdDZByKz9-16" style="edgeStyle=orthogonalEdgeStyle;rounded=0;orthogonalLoop=1;jettySize=auto;html=1;exitX=0.5;exitY=1;exitDx=0;exitDy=0;entryX=0.5;entryY=1;entryDx=0;entryDy=0;" edge="1" parent="1c1d494c118603dd-1" source="bf48zWtr6IkKo6rd0Vpl-30" target="bf48zWtr6IkKo6rd0Vpl-5">
          <mxGeometry relative="1" as="geometry" />
        </mxCell>
      </root>
    </mxGraphModel>
  </diagram>
</mxfile>
